<svg width="35" height="35" viewBox="0 0 35 35" fill="none" xmlns="http://www.w3.org/2000/svg">
<circle cx="17.5" cy="17.5" r="16.5" fill="black" stroke="white" stroke-width="2"/>
<path fill-rule="evenodd" clip-rule="evenodd" d="M23.9489 10.2043C24.9479 9.79138 26.0189 10.6207 25.8425 11.6707L23.759 24.0723C23.5581 25.268 22.2204 25.9542 21.1029 25.3583C20.1678 24.8597 18.7805 24.0922 17.5302 23.2902C16.9058 22.8896 14.9941 21.6054 15.2291 20.6911C15.43 19.9095 18.6439 16.9725 20.4804 15.2258C21.2018 14.5397 20.8733 14.1434 20.0213 14.7751C17.9078 16.3421 14.5146 18.7247 13.3925 19.3952C12.4025 19.9868 11.8856 20.0878 11.269 19.9868C10.143 19.8026 9.09918 19.5174 8.24695 19.1706C7.09509 18.7018 7.1512 17.1478 8.24617 16.6953L23.9489 10.2043Z" fill="white"/>
</svg>
