<svg width="80" height="80" viewBox="0 0 80 80" fill="none" xmlns="http://www.w3.org/2000/svg">
<mask id="mask0_32_59" style="mask-type:alpha" maskUnits="userSpaceOnUse" x="0" y="0" width="80" height="80">
<rect width="80" height="80" fill="#D9D9D9"/>
</mask>
<g mask="url(#mask0_32_59)">
<rect width="80" height="80" fill="black"/>
<path d="M54.9841 38.0447V19.0428H62.9289C64.2576 19.0428 65.4042 19.2886 66.3689 19.78C67.4792 20.3442 68.3619 21.1542 69.0171 22.2098C69.6724 23.2473 70 24.394 70 25.6498C70 26.9057 69.6724 28.0615 69.0171 29.1171C68.3801 30.1728 67.5065 30.9827 66.3962 31.547C65.4497 32.0384 64.294 32.2841 62.9289 32.2841H59.953V38.0447H54.9841Z" fill="white"/>
<path d="M32.8906 19.0428H46.7325V23.8479H37.8595V26.2505H45.2309V30.8098H37.8595V33.2397H46.7325V38.0447H32.8906V19.0428Z" fill="white"/>
<path d="M11.3162 38.0447V19.0428H18.3873C19.7705 19.0428 21.0446 19.3887 22.2095 20.0803C23.3926 20.7719 24.3299 21.7093 25.0216 22.8924C25.7132 24.0572 26.059 25.3313 26.059 26.7146V30.373C26.059 31.7563 25.7132 33.0395 25.0216 34.2225C24.3299 35.3874 23.3926 36.3156 22.2095 37.0073C21.0446 37.6989 19.7705 38.0447 18.3873 38.0447H11.3162Z" fill="white"/>
<path d="M26.1565 41.3502H9.93937L17.5292 52.5711V60.3521H18.5394V52.5711L26.1565 41.3502Z" fill="white"/>
<path d="M47.5405 48.749C47.5405 47.3293 47.1856 46.0097 46.4758 44.7902C45.7659 43.5708 44.8104 42.6061 43.6091 41.8963C42.3896 41.1864 41.061 40.8315 39.6231 40.8315C38.1852 40.8315 36.8656 41.1864 35.6643 41.8963C34.4449 42.6061 33.4802 43.5708 32.7704 44.7902C32.0605 46.0097 31.7056 47.3293 31.7056 48.749V52.9534C31.7056 54.3731 32.0605 55.6927 32.7704 56.9121C33.4802 58.1316 34.4449 59.0963 35.6643 59.8061C36.8656 60.5159 38.1852 60.8709 39.6231 60.8709C41.061 60.8709 42.3896 60.5159 43.6091 59.8061C44.8104 59.0963 45.7659 58.1316 46.4758 56.9121C47.1856 55.6927 47.5405 54.3731 47.5405 52.9534V48.749ZM42.5716 52.9534C42.5716 53.827 42.2986 54.5733 41.7526 55.1921C41.2066 55.811 40.4967 56.1204 39.6231 56.1204C38.7676 56.1204 38.0669 55.811 37.5209 55.1921C36.9748 54.5733 36.7018 53.827 36.7018 52.9534V48.7217C36.7018 47.8298 36.9748 47.0836 37.5209 46.4829C38.0669 45.8823 38.7676 45.582 39.6231 45.582C40.4967 45.582 41.2066 45.8823 41.7526 46.4829C42.2986 47.0836 42.5716 47.8298 42.5716 48.7217V52.9534Z" fill="white"/>
<path d="M52.8972 55.5197V60.3521H67.3671V41.3502H66.3569V55.5197H52.8972Z" fill="white"/>
<path d="M45.6188 50.6301C45.6188 53.848 43.0102 56.4567 39.7923 56.4567C36.5743 56.4567 33.9657 53.848 33.9657 50.6301C33.9657 47.4122 36.5743 44.8036 39.7923 44.8036C43.0102 44.8036 45.6188 47.4122 45.6188 50.6301Z" fill="#8A52EB"/>
<path d="M66.9712 25.7257C66.9712 28.484 64.7352 30.7199 61.977 30.7199C59.2188 30.7199 56.9828 28.484 56.9828 25.7257C56.9828 22.9675 59.2188 20.7316 61.977 20.7316C64.7352 20.7316 66.9712 22.9675 66.9712 25.7257Z" fill="#91EB67"/>
</g>
</svg>
